<svg width="27" height="25" viewBox="0 0 27 25" fill="none" xmlns="http://www.w3.org/2000/svg">
<path d="M25.9346 17.5145H8.01182L8.91171 15.7027L23.8639 15.6759C24.3695 15.6759 24.8029 15.3189 24.8932 14.825L26.9639 3.36798C27.0181 3.0675 26.9368 2.75809 26.7382 2.52306C26.64 2.40739 26.5175 2.31421 26.3793 2.24999C26.241 2.18578 26.0903 2.15206 25.9376 2.15117L6.91629 2.08869L6.75376 1.33302C6.65143 0.85106 6.21202 0.5 5.71241 0.5H1.06242C0.780651 0.5 0.51042 0.610646 0.311177 0.807598C0.111934 1.00455 0 1.27167 0 1.5502C0 1.82874 0.111934 2.09586 0.311177 2.29281C0.51042 2.48976 0.780651 2.60041 1.06242 2.60041H4.85163L5.56192 5.93845L7.31056 14.3074L5.0593 17.9399C4.94239 18.0959 4.87197 18.2811 4.85602 18.4746C4.84006 18.6681 4.8792 18.8621 4.96901 19.0348C5.14959 19.3888 5.51377 19.6119 5.91707 19.6119H7.80716C7.40421 20.141 7.18657 20.7854 7.18716 21.4476C7.18716 23.1315 8.57162 24.5 10.2751 24.5C11.9786 24.5 13.3631 23.1315 13.3631 21.4476C13.3631 20.7841 13.1403 20.1385 12.7431 19.6119H17.5917C17.1887 20.141 16.9711 20.7854 16.9717 21.4476C16.9717 23.1315 18.3561 24.5 20.0596 24.5C21.7631 24.5 23.1476 23.1315 23.1476 21.4476C23.1476 20.7841 22.9249 20.1385 22.5276 19.6119H25.9376C26.5215 19.6119 27 19.1419 27 18.5617C26.9983 18.2835 26.8852 18.0172 26.6856 17.821C26.486 17.6248 26.2161 17.5147 25.9346 17.5145ZM7.35871 4.15935L24.6886 4.21588L22.9911 13.6112L9.37822 13.635L7.35871 4.15935ZM10.2751 22.3877C9.75142 22.3877 9.32404 21.9652 9.32404 21.4476C9.32404 20.9299 9.75142 20.5074 10.2751 20.5074C10.7988 20.5074 11.2262 20.9299 11.2262 21.4476C11.2262 21.6969 11.126 21.936 10.9476 22.1123C10.7693 22.2886 10.5273 22.3877 10.2751 22.3877ZM20.0596 22.3877C19.5359 22.3877 19.1086 21.9652 19.1086 21.4476C19.1086 20.9299 19.5359 20.5074 20.0596 20.5074C20.5833 20.5074 21.0107 20.9299 21.0107 21.4476C21.0107 21.6969 20.9105 21.936 20.7321 22.1123C20.5538 22.2886 20.3119 22.3877 20.0596 22.3877Z" fill="white"/>
</svg>
