<svg width="22" height="22" viewBox="0 0 22 22" fill="none" xmlns="http://www.w3.org/2000/svg">
<path d="M13.5825 10.9985L21.4582 3.49719C21.8031 3.16793 21.9969 2.72136 21.9969 2.25571C21.9969 1.79007 21.8031 1.3435 21.4582 1.01424C21.1133 0.684977 20.6456 0.5 20.1578 0.5C19.6701 0.5 19.2023 0.684977 18.8574 1.01424L11 8.53304L3.14259 1.01424C2.7977 0.684977 2.32993 0.5 1.84218 0.5C1.35443 0.5 0.886663 0.684977 0.541773 1.01424C0.196883 1.3435 0.00312575 1.79007 0.00312575 2.25571C0.00312574 2.72136 0.196883 3.16793 0.541773 3.49719L8.4175 10.9985L0.541773 18.4998C0.370104 18.6624 0.233846 18.8558 0.14086 19.0688C0.0478743 19.2819 0 19.5105 0 19.7413C0 19.9721 0.0478743 20.2007 0.14086 20.4138C0.233846 20.6268 0.370104 20.8202 0.541773 20.9828C0.712041 21.1467 0.914614 21.2768 1.13781 21.3655C1.361 21.4543 1.6004 21.5 1.84218 21.5C2.08397 21.5 2.32337 21.4543 2.54656 21.3655C2.76975 21.2768 2.97233 21.1467 3.14259 20.9828L11 13.464L18.8574 20.9828C19.0277 21.1467 19.2302 21.2768 19.4534 21.3655C19.6766 21.4543 19.916 21.5 20.1578 21.5C20.3996 21.5 20.639 21.4543 20.8622 21.3655C21.0854 21.2768 21.288 21.1467 21.4582 20.9828C21.6299 20.8202 21.7662 20.6268 21.8591 20.4138C21.9521 20.2007 22 19.9721 22 19.7413C22 19.5105 21.9521 19.2819 21.8591 19.0688C21.7662 18.8558 21.6299 18.6624 21.4582 18.4998L13.5825 10.9985Z" fill="#A9A9A9"/>
</svg>
