<svg width="16" height="27" viewBox="0 0 16 27" fill="none" xmlns="http://www.w3.org/2000/svg">
<path d="M12.5 0H3.5C2.65625 0 1.94531 0.325195 1.36719 0.975586C0.789062 1.62598 0.5 2.42578 0.5 3.375V23.625C0.5 24.5742 0.789062 25.374 1.36719 26.0244C1.94531 26.6748 2.65625 27 3.5 27H12.5C13.375 27 14.0938 26.6748 14.6562 26.0244C15.2188 25.374 15.5 24.5742 15.5 23.625V3.375C15.5 2.42578 15.2188 1.62598 14.6562 0.975586C14.0938 0.325195 13.375 0 12.5 0ZM13.5312 23.625C13.5312 24.3633 13.1875 24.7324 12.5 24.7324H3.5C2.84375 24.7324 2.51562 24.3633 2.51562 23.625V11.2324H13.5312V23.625ZM13.5312 10.125H2.51562V3.375C2.51562 2.63672 2.84375 2.26758 3.5 2.26758H12.5C13.1875 2.26758 13.5312 2.63672 13.5312 3.375V10.125ZM12.5 13.5C12.5 13.8164 12.4062 14.0801 12.2188 14.291C12.0312 14.502 11.7969 14.6074 11.5156 14.6074C11.2344 14.6074 11 14.502 10.8125 14.291C10.625 14.0801 10.5312 13.8164 10.5312 13.5C10.5312 13.1836 10.625 12.9199 10.8125 12.709C11 12.498 11.2344 12.3926 11.5156 12.3926C11.7969 12.3926 12.0312 12.498 12.2188 12.709C12.4062 12.9199 12.5 13.1836 12.5 13.5ZM3.5 4.48242H12.5V6.75H3.5V4.48242ZM11.5156 8.4375C11.5156 8.82422 11.3438 9.01758 11 9.01758C10.6875 9.01758 10.5312 8.82422 10.5312 8.4375C10.5312 8.05078 10.6875 7.85742 11 7.85742C11.3438 7.85742 11.5156 8.05078 11.5156 8.4375ZM4.53125 22.5176H7.53125V23.625H4.53125V22.5176ZM8.51562 22.5176H11.5156V23.625H8.51562V22.5176Z" fill="white"/>
</svg>
