<svg width="24" height="24" viewBox="0 0 24 24" fill="none" xmlns="http://www.w3.org/2000/svg">
<path d="M0.783001 11.3666C0.279001 12.0131 1.51512e-06 12.8052 1.44307e-06 13.6294C1.32875e-06 14.937 0.753001 16.1747 1.965 16.8649C2.27702 17.0426 2.63227 17.1361 2.994 17.1358L10.188 17.1358L10.008 20.7149C9.966 21.5799 10.281 22.4011 10.893 23.0273C11.1933 23.3359 11.5557 23.5814 11.9577 23.7488C12.3596 23.9161 12.7927 24.0016 13.23 24C14.79 24 16.17 22.9807 16.584 21.5216L19.161 12.4645L23.04 12.4645C23.571 12.4645 24 12.048 24 11.5326L24 0.931925C24 0.416454 23.571 -1.05262e-07 23.04 -1.51684e-07L5.001 -1.7287e-06C4.725 -1.75283e-06 4.455 0.0524197 4.206 0.157261C2.778 0.748451 1.857 2.10265 1.857 3.60538C1.857 3.97233 1.911 4.33345 2.019 4.68292C1.515 5.32944 1.236 6.12158 1.236 6.94575C1.236 7.3127 1.29 7.67382 1.398 8.02329C0.894001 8.66981 0.615002 9.46195 0.615002 10.2861C0.621002 10.6531 0.675001 11.0171 0.783001 11.3666V11.3666ZM21.84 2.09683L21.84 10.3677L19.41 10.3677L19.41 2.09683L21.84 2.09683ZM2.748 12.3771L3.405 11.8238L2.988 11.0841C2.85062 10.8404 2.77938 10.5668 2.781 10.289C2.781 9.80851 2.997 9.35128 3.369 9.03676L4.026 8.48343L3.609 7.74371C3.47162 7.50004 3.40038 7.22644 3.402 6.94866C3.402 6.46814 3.618 6.01091 3.99 5.69639L4.647 5.14306L4.23 4.40334C4.09262 4.15967 4.02138 3.88607 4.023 3.6083C4.023 2.95595 4.419 2.36767 5.031 2.09974L17.49 2.09974L17.49 10.4609L14.505 20.9596C14.428 21.2287 14.2628 21.4661 14.0344 21.6358C13.8059 21.8056 13.5267 21.8984 13.239 21.9002C13.011 21.9002 12.786 21.8362 12.606 21.7051C12.309 21.4896 12.15 21.1634 12.168 20.8169L12.456 15.0389L3.024 15.0389C2.49 14.7215 2.16 14.1856 2.16 13.6294C2.16 13.1489 2.376 12.6946 2.748 12.3771Z" fill="white"/>
</svg>
