<svg width="17" height="17" viewBox="0 0 17 17" fill="none" xmlns="http://www.w3.org/2000/svg">
<path d="M8.12299 2.17767C8.34799 1.60378 9.19947 1.60378 9.42517 2.17767L10.8806 6.07657C10.9826 6.33496 11.242 6.50699 11.5317 6.50699H15.1085C15.7695 6.50699 16.0578 7.30254 15.5381 7.69216L12.9928 9.9068C12.8788 9.99156 12.7955 10.1091 12.7548 10.2425C12.7141 10.3759 12.7182 10.5183 12.7664 10.6493L13.696 14.4591C13.9224 15.0711 13.1897 15.5967 12.6356 15.22L9.17838 13.0985C9.05998 13.0181 8.91879 12.9749 8.77408 12.9749C8.62937 12.9749 8.48818 13.0181 8.36978 13.0985L4.91252 15.22C4.35916 15.5967 3.6258 15.0704 3.8522 14.4591L4.78174 10.6493C4.82995 10.5183 4.83402 10.3759 4.79334 10.2425C4.75267 10.1091 4.66935 9.99156 4.55533 9.9068L2.01002 7.69216C1.4897 7.30254 1.77939 6.50699 2.43892 6.50699H6.01572C6.15655 6.50744 6.2942 6.46653 6.41047 6.38967C6.52673 6.31282 6.61612 6.20363 6.66681 6.07657L8.12228 2.17767H8.12299Z" stroke="black" stroke-width="2" stroke-linecap="round" stroke-linejoin="round"/>
</svg>
