<svg width="33" height="34" viewBox="0 0 33 34" fill="none" xmlns="http://www.w3.org/2000/svg">
<path d="M0.449707 3.98775C0.449707 3.16964 0.766773 2.38504 1.33115 1.80655C1.89554 1.22807 2.661 0.903076 3.45916 0.903076L29.541 0.903076C30.3392 0.903076 31.1047 1.22807 31.669 1.80655C32.2334 2.38504 32.5505 3.16964 32.5505 3.98775V30.7215C32.5505 31.5397 32.2334 32.3243 31.669 32.9027C31.1047 33.4812 30.3392 33.8062 29.541 33.8062H3.45916C2.661 33.8062 1.89554 33.4812 1.33115 32.9027C0.766773 32.3243 0.449707 31.5397 0.449707 30.7215L0.449707 3.98775ZM3.45916 2.95952C3.1931 2.95952 2.93795 3.06785 2.74982 3.26068C2.56169 3.45351 2.45601 3.71504 2.45601 3.98775V11.1853H10.4812V2.95952H3.45916ZM10.4812 13.2418H2.45601V21.4675H10.4812V13.2418ZM12.4875 21.4675H20.5127V13.2418H12.4875V21.4675ZM10.4812 23.524H2.45601V30.7215C2.45601 30.9942 2.56169 31.2558 2.74982 31.4486C2.93795 31.6414 3.1931 31.7498 3.45916 31.7498H10.4812V23.524ZM12.4875 23.524V31.7498H20.5127V23.524H12.4875ZM22.519 23.524V31.7498H29.541C29.8071 31.7498 30.0623 31.6414 30.2504 31.4486C30.4385 31.2558 30.5442 30.9942 30.5442 30.7215V23.524H22.519ZM22.519 21.4675H30.5442V13.2418H22.519V21.4675ZM22.519 11.1853H30.5442V3.98775C30.5442 3.71504 30.4385 3.45351 30.2504 3.26068C30.0623 3.06785 29.8071 2.95952 29.541 2.95952H22.519V11.1853ZM20.5127 11.1853V2.95952H12.4875V11.1853H20.5127Z" fill="white"/>
</svg>
