<svg width="25" height="15" viewBox="0 0 25 15" fill="none" xmlns="http://www.w3.org/2000/svg">
<path d="M21.8334 2.27601C22.246 2.27601 22.6417 2.43327 22.9334 2.71318C23.2251 2.99309 23.389 3.37273 23.389 3.76858V11.2314C23.389 11.6273 23.2251 12.0069 22.9334 12.2868C22.6417 12.5667 22.246 12.724 21.8334 12.724H3.16677C2.75422 12.724 2.35855 12.5667 2.06683 12.2868C1.77511 12.0069 1.61122 11.6273 1.61122 11.2314V3.76858C1.61122 3.37273 1.77511 2.99309 2.06683 2.71318C2.35855 2.43327 2.75422 2.27601 3.16677 2.27601H21.8334ZM3.16677 0.783447C2.34166 0.783447 1.55033 1.09795 0.966887 1.65777C0.383441 2.21759 0.0556641 2.97687 0.0556641 3.76858L0.0556641 11.2314C0.0556641 12.0231 0.383441 12.7824 0.966887 13.3422C1.55033 13.902 2.34166 14.2166 3.16677 14.2166H21.8334C22.6586 14.2166 23.4499 13.902 24.0333 13.3422C24.6168 12.7824 24.9445 12.0231 24.9445 11.2314V3.76858C24.9445 2.97687 24.6168 2.21759 24.0333 1.65777C23.4499 1.09795 22.6586 0.783447 21.8334 0.783447H3.16677Z" fill="white"/>
<path d="M20.2779 10.112C20.2779 10.0131 20.3188 9.91815 20.3918 9.84817C20.4647 9.77819 20.5636 9.73888 20.6667 9.73888H21.4445C21.5477 9.73888 21.6466 9.77819 21.7195 9.84817C21.7924 9.91815 21.8334 10.0131 21.8334 10.112V10.8583C21.8334 10.9573 21.7924 11.0522 21.7195 11.1222C21.6466 11.1921 21.5477 11.2315 21.4445 11.2315H20.6667C20.5636 11.2315 20.4647 11.1921 20.3918 11.1222C20.3188 11.0522 20.2779 10.9573 20.2779 10.8583V10.112ZM20.2779 7.12686C20.2779 7.0279 20.3188 6.93299 20.3918 6.86301C20.4647 6.79303 20.5636 6.75372 20.6667 6.75372H21.4445C21.5477 6.75372 21.6466 6.79303 21.7195 6.86301C21.7924 6.93299 21.8334 7.0279 21.8334 7.12686V7.87315C21.8334 7.97212 21.7924 8.06703 21.7195 8.13701C21.6466 8.20698 21.5477 8.2463 21.4445 8.2463H20.6667C20.5636 8.2463 20.4647 8.20698 20.3918 8.13701C20.3188 8.06703 20.2779 7.97212 20.2779 7.87315V7.12686ZM12.5001 7.12686C12.5001 7.0279 12.5411 6.93299 12.614 6.86301C12.6869 6.79303 12.7858 6.75372 12.889 6.75372H13.6667C13.7699 6.75372 13.8688 6.79303 13.9417 6.86301C14.0147 6.93299 14.0556 7.0279 14.0556 7.12686V7.87315C14.0556 7.97212 14.0147 8.06703 13.9417 8.13701C13.8688 8.20698 13.7699 8.2463 13.6667 8.2463H12.889C12.7858 8.2463 12.6869 8.20698 12.614 8.13701C12.5411 8.06703 12.5001 7.97212 12.5001 7.87315V7.12686ZM15.6112 7.12686C15.6112 7.0279 15.6522 6.93299 15.7251 6.86301C15.798 6.79303 15.8969 6.75372 16.0001 6.75372H18.3334C18.4366 6.75372 18.5355 6.79303 18.6084 6.86301C18.6813 6.93299 18.7223 7.0279 18.7223 7.12686V7.87315C18.7223 7.97212 18.6813 8.06703 18.6084 8.13701C18.5355 8.20698 18.4366 8.2463 18.3334 8.2463H16.0001C15.8969 8.2463 15.798 8.20698 15.7251 8.13701C15.6522 8.06703 15.6112 7.97212 15.6112 7.87315V7.12686ZM17.1667 10.112C17.1667 10.0131 17.2077 9.91815 17.2807 9.84817C17.3536 9.77819 17.4525 9.73888 17.5556 9.73888H18.3334C18.4366 9.73888 18.5355 9.77819 18.6084 9.84817C18.6813 9.91815 18.7223 10.0131 18.7223 10.112V10.8583C18.7223 10.9573 18.6813 11.0522 18.6084 11.1222C18.5355 11.1921 18.4366 11.2315 18.3334 11.2315H17.5556C17.4525 11.2315 17.3536 11.1921 17.2807 11.1222C17.2077 11.0522 17.1667 10.9573 17.1667 10.8583V10.112ZM9.38897 7.12686C9.38897 7.0279 9.42994 6.93299 9.50287 6.86301C9.5758 6.79303 9.67472 6.75372 9.77786 6.75372H10.5556C10.6588 6.75372 10.7577 6.79303 10.8306 6.86301C10.9036 6.93299 10.9445 7.0279 10.9445 7.12686V7.87315C10.9445 7.97212 10.9036 8.06703 10.8306 8.13701C10.7577 8.20698 10.6588 8.2463 10.5556 8.2463H9.77786C9.67472 8.2463 9.5758 8.20698 9.50287 8.13701C9.42994 8.06703 9.38897 7.97212 9.38897 7.87315V7.12686ZM6.27786 7.12686C6.27786 7.0279 6.31883 6.93299 6.39176 6.86301C6.46469 6.79303 6.56361 6.75372 6.66675 6.75372H7.44453C7.54767 6.75372 7.64658 6.79303 7.71951 6.86301C7.79244 6.93299 7.83342 7.0279 7.83342 7.12686V7.87315C7.83342 7.97212 7.79244 8.06703 7.71951 8.13701C7.64658 8.20698 7.54767 8.2463 7.44453 8.2463H6.66675C6.56361 8.2463 6.46469 8.20698 6.39176 8.13701C6.31883 8.06703 6.27786 7.97212 6.27786 7.87315V7.12686ZM3.16675 7.12686C3.16675 7.0279 3.20772 6.93299 3.28065 6.86301C3.35358 6.79303 3.4525 6.75372 3.55564 6.75372H4.33341C4.43655 6.75372 4.53547 6.79303 4.6084 6.86301C4.68133 6.93299 4.7223 7.0279 4.7223 7.12686V7.87315C4.7223 7.97212 4.68133 8.06703 4.6084 8.13701C4.53547 8.20698 4.43655 8.2463 4.33341 8.2463H3.55564C3.4525 8.2463 3.35358 8.20698 3.28065 8.13701C3.20772 8.06703 3.16675 7.97212 3.16675 7.87315V7.12686ZM20.2779 4.1417C20.2779 4.04274 20.3188 3.94782 20.3918 3.87785C20.4647 3.80787 20.5636 3.76855 20.6667 3.76855H21.4445C21.5477 3.76855 21.6466 3.80787 21.7195 3.87785C21.7924 3.94782 21.8334 4.04274 21.8334 4.1417V4.88799C21.8334 4.98695 21.7924 5.08187 21.7195 5.15184C21.6466 5.22182 21.5477 5.26114 21.4445 5.26114H20.6667C20.5636 5.26114 20.4647 5.22182 20.3918 5.15184C20.3188 5.08187 20.2779 4.98695 20.2779 4.88799V4.1417ZM17.1667 4.1417C17.1667 4.04274 17.2077 3.94782 17.2807 3.87785C17.3536 3.80787 17.4525 3.76855 17.5556 3.76855H18.3334C18.4366 3.76855 18.5355 3.80787 18.6084 3.87785C18.6813 3.94782 18.7223 4.04274 18.7223 4.1417V4.88799C18.7223 4.98695 18.6813 5.08187 18.6084 5.15184C18.5355 5.22182 18.4366 5.26114 18.3334 5.26114H17.5556C17.4525 5.26114 17.3536 5.22182 17.2807 5.15184C17.2077 5.08187 17.1667 4.98695 17.1667 4.88799V4.1417ZM14.0556 4.1417C14.0556 4.04274 14.0966 3.94782 14.1695 3.87785C14.2425 3.80787 14.3414 3.76855 14.4445 3.76855H15.2223C15.3254 3.76855 15.4244 3.80787 15.4973 3.87785C15.5702 3.94782 15.6112 4.04274 15.6112 4.1417V4.88799C15.6112 4.98695 15.5702 5.08187 15.4973 5.15184C15.4244 5.22182 15.3254 5.26114 15.2223 5.26114H14.4445C14.3414 5.26114 14.2425 5.22182 14.1695 5.15184C14.0966 5.08187 14.0556 4.98695 14.0556 4.88799V4.1417ZM10.9445 4.1417C10.9445 4.04274 10.9855 3.94782 11.0584 3.87785C11.1314 3.80787 11.2303 3.76855 11.3334 3.76855H12.1112C12.2143 3.76855 12.3132 3.80787 12.3862 3.87785C12.4591 3.94782 12.5001 4.04274 12.5001 4.1417V4.88799C12.5001 4.98695 12.4591 5.08187 12.3862 5.15184C12.3132 5.22182 12.2143 5.26114 12.1112 5.26114H11.3334C11.2303 5.26114 11.1314 5.22182 11.0584 5.15184C10.9855 5.08187 10.9445 4.98695 10.9445 4.88799V4.1417ZM7.83342 4.1417C7.83342 4.04274 7.87439 3.94782 7.94732 3.87785C8.02025 3.80787 8.11916 3.76855 8.2223 3.76855H9.00008C9.10322 3.76855 9.20214 3.80787 9.27507 3.87785C9.348 3.94782 9.38897 4.04274 9.38897 4.1417V4.88799C9.38897 4.98695 9.348 5.08187 9.27507 5.15184C9.20214 5.22182 9.10322 5.26114 9.00008 5.26114H8.2223C8.11916 5.26114 8.02025 5.22182 7.94732 5.15184C7.87439 5.08187 7.83342 4.98695 7.83342 4.88799V4.1417ZM3.16675 4.1417C3.16675 4.04274 3.20772 3.94782 3.28065 3.87785C3.35358 3.80787 3.4525 3.76855 3.55564 3.76855H5.88897C5.99211 3.76855 6.09103 3.80787 6.16396 3.87785C6.23689 3.94782 6.27786 4.04274 6.27786 4.1417V4.88799C6.27786 4.98695 6.23689 5.08187 6.16396 5.15184C6.09103 5.22182 5.99211 5.26114 5.88897 5.26114H3.55564C3.4525 5.26114 3.35358 5.22182 3.28065 5.15184C3.20772 5.08187 3.16675 4.98695 3.16675 4.88799V4.1417ZM3.16675 10.112C3.16675 10.0131 3.20772 9.91815 3.28065 9.84817C3.35358 9.77819 3.4525 9.73888 3.55564 9.73888H4.33341C4.43655 9.73888 4.53547 9.77819 4.6084 9.84817C4.68133 9.91815 4.7223 10.0131 4.7223 10.112V10.8583C4.7223 10.9573 4.68133 11.0522 4.6084 11.1222C4.53547 11.1921 4.43655 11.2315 4.33341 11.2315H3.55564C3.4525 11.2315 3.35358 11.1921 3.28065 11.1222C3.20772 11.0522 3.16675 10.9573 3.16675 10.8583V10.112ZM6.27786 10.112C6.27786 10.0131 6.31883 9.91815 6.39176 9.84817C6.46469 9.77819 6.56361 9.73888 6.66675 9.73888H15.2223C15.3254 9.73888 15.4244 9.77819 15.4973 9.84817C15.5702 9.91815 15.6112 10.0131 15.6112 10.112V10.8583C15.6112 10.9573 15.5702 11.0522 15.4973 11.1222C15.4244 11.1921 15.3254 11.2315 15.2223 11.2315H6.66675C6.56361 11.2315 6.46469 11.1921 6.39176 11.1222C6.31883 11.0522 6.27786 10.9573 6.27786 10.8583V10.112Z" fill="white"/>
</svg>
