<svg width="30" height="25" viewBox="0 0 30 25" fill="none" xmlns="http://www.w3.org/2000/svg">
<path d="M25.625 20H4.375C3.81159 19.9994 3.27141 19.7754 2.87302 19.377C2.47463 18.9786 2.25056 18.4384 2.25 17.875V3C2.25056 2.43659 2.47463 1.89641 2.87302 1.49802C3.27141 1.09963 3.81159 0.875563 4.375 0.875H25.625C26.1884 0.875563 26.7286 1.09963 27.127 1.49802C27.5254 1.89641 27.7494 2.43659 27.75 3V17.875C27.7492 18.4383 27.525 18.9783 27.1267 19.3767C26.7283 19.775 26.1883 19.9992 25.625 20ZM4.375 3V17.875H25.625V3H4.375Z" fill="white"/>
<path d="M0.125 22H29.875V24.125H0.125V22Z" fill="white"/>
</svg>
