<svg width="15" height="27" viewBox="0 0 15 27" fill="none" xmlns="http://www.w3.org/2000/svg">
<path d="M15 3.59833V0.908904C15 0.675797 14.7574 0.547067 14.5935 0.689714L0.387649 12.94C0.266951 13.0436 0.169286 13.1763 0.102105 13.328C0.0349231 13.4796 0 13.6462 0 13.815C0 13.9838 0.0349231 14.1504 0.102105 14.3021C0.169286 14.4537 0.266951 14.5864 0.387649 14.69L14.5935 26.9403C14.7605 27.083 15 26.9542 15 26.7211V24.0317C15 23.8612 14.9275 23.6977 14.8078 23.5933L3.46327 13.8168L14.8078 4.03671C14.9275 3.93233 15 3.76881 15 3.59833Z" fill="white"/>
</svg>
