<svg width="24" height="24" viewBox="0 0 24 24" fill="none" xmlns="http://www.w3.org/2000/svg">
<path d="M23.217 12.6334C23.721 11.9869 24 11.1948 24 10.3706C24 9.06299 23.247 7.82528 22.035 7.13507C21.723 6.95741 21.3677 6.8639 21.006 6.86423H13.812L13.992 3.28506C14.034 2.42011 13.719 1.59886 13.107 0.972718C12.8067 0.6641 12.4443 0.418552 12.0423 0.251249C11.6404 0.0839457 11.2073 -0.0015581 10.77 2.1493e-05C9.21 2.1493e-05 7.83 1.01931 7.416 2.47836L4.839 11.5355H0.96C0.429 11.5355 0 11.952 0 12.4674V23.0681C0 23.5835 0.429 24 0.96 24H18.999C19.275 24 19.545 23.9476 19.794 23.8427C21.222 23.2515 22.143 21.8973 22.143 20.3946C22.143 20.0277 22.089 19.6665 21.981 19.3171C22.485 18.6706 22.764 17.8784 22.764 17.0542C22.764 16.6873 22.71 16.3262 22.602 15.9767C23.106 15.3302 23.385 14.5381 23.385 13.7139C23.379 13.3469 23.325 12.9829 23.217 12.6334V12.6334ZM2.16 21.9032V13.6323H4.59V21.9032H2.16ZM21.252 11.6229L20.595 12.1762L21.012 12.9159C21.1494 13.1596 21.2206 13.4332 21.219 13.711C21.219 14.1915 21.003 14.6487 20.631 14.9632L19.974 15.5166L20.391 16.2563C20.5284 16.5 20.5996 16.7736 20.598 17.0513C20.598 17.5319 20.382 17.9891 20.01 18.3036L19.353 18.8569L19.77 19.5967C19.9074 19.8403 19.9786 20.1139 19.977 20.3917C19.977 21.044 19.581 21.6323 18.969 21.9003H6.51V13.5391L9.495 3.04043C9.57197 2.77133 9.7372 2.53393 9.96565 2.36419C10.1941 2.19445 10.4733 2.10162 10.761 2.09976C10.989 2.09976 11.214 2.16383 11.394 2.29489C11.691 2.51039 11.85 2.83657 11.832 3.18313L11.544 8.96106H20.976C21.51 9.2785 21.84 9.81436 21.84 10.3706C21.84 10.8511 21.624 11.3054 21.252 11.6229Z" fill="white"/>
</svg>
