<svg width="20" height="23" viewBox="0 0 20 23" fill="none" xmlns="http://www.w3.org/2000/svg">
<path d="M16 7.69251C17.6569 7.69251 19 6.41399 19 4.83685C19 3.25972 17.6569 1.9812 16 1.9812C14.3431 1.9812 13 3.25972 13 4.83685C13 6.41399 14.3431 7.69251 16 7.69251Z" stroke="white" stroke-width="2"/>
<path d="M16 21.0188C17.6569 21.0188 19 19.7403 19 18.1631C19 16.586 17.6569 15.3075 16 15.3075C14.3431 15.3075 13 16.586 13 18.1631C13 19.7403 14.3431 21.0188 16 21.0188Z" stroke="white" stroke-width="2"/>
<path d="M4 14.3557C5.65685 14.3557 7 13.0771 7 11.5C7 9.92287 5.65685 8.64435 4 8.64435C2.34315 8.64435 1 9.92287 1 11.5C1 13.0771 2.34315 14.3557 4 14.3557Z" stroke="white" stroke-width="2"/>
<path d="M13.408 16.7239L6.59399 12.9402M13.408 6.27612L6.59399 10.0598L13.408 6.27612Z" stroke="white" stroke-width="2" stroke-linecap="round" stroke-linejoin="round"/>
</svg>
