<svg width="15" height="27" viewBox="0 0 15 27" fill="none" xmlns="http://www.w3.org/2000/svg">
<path d="M2.63587e-06 24.0318L2.83987e-06 26.7212C2.85755e-06 26.9543 0.24265 27.0831 0.406515 26.9404L14.6123 14.6901C14.733 14.5865 14.8307 14.4538 14.8979 14.3021C14.9651 14.1505 15 13.9839 15 13.8151C15 13.6463 14.9651 13.4797 14.8979 13.3281C14.8307 13.1764 14.733 13.0437 14.6123 12.9401L0.406513 0.689798C0.239496 0.547149 8.64242e-07 0.67588 8.81924e-07 0.908987L1.08593e-06 3.59841C1.09886e-06 3.7689 0.0724785 3.93242 0.192227 4.03679L11.5367 13.8134L0.192228 23.5934C0.07248 23.6978 2.62293e-06 23.8613 2.63587e-06 24.0318Z" fill="white"/>
</svg>
