<svg width="33" height="33" viewBox="0 0 33 33" fill="none" xmlns="http://www.w3.org/2000/svg">
<path d="M0 2.87901C0 1.2898 1.5935 0 3.55691 0H28.9634C30.9269 0 32.5204 1.2898 32.5204 2.87901V6.99188C32.5204 7.75545 32.1456 8.48773 31.4786 9.02765C30.8115 9.56757 29.9068 9.8709 28.9634 9.8709H3.55691C2.61356 9.8709 1.70885 9.56757 1.0418 9.02765C0.374745 8.48773 0 7.75545 0 6.99188V2.87901V2.87901ZM3.55691 2.46772C3.42215 2.46772 3.2929 2.51106 3.19761 2.58819C3.10232 2.66532 3.04878 2.76993 3.04878 2.87901V6.99188C3.04878 7.21891 3.27643 7.40317 3.55691 7.40317H28.9634C29.0982 7.40317 29.2275 7.35984 29.3228 7.28271C29.418 7.20558 29.4716 7.10096 29.4716 6.99188V2.87901C29.4716 2.76993 29.418 2.66532 29.3228 2.58819C29.2275 2.51106 29.0982 2.46772 28.9634 2.46772H3.55691V2.46772Z" fill="white"/>
<path d="M0 14.3952C0 12.8059 1.5935 11.5161 3.55691 11.5161H28.9634C30.9269 11.5161 32.5204 12.8059 32.5204 14.3952V18.5081C32.5204 19.2717 32.1456 20.004 31.4786 20.5439C30.8115 21.0838 29.9068 21.3871 28.9634 21.3871H3.55691C2.61356 21.3871 1.70885 21.0838 1.0418 20.5439C0.374745 20.004 0 19.2717 0 18.5081V14.3952ZM3.55691 13.9839C3.42215 13.9839 3.2929 14.0272 3.19761 14.1043C3.10232 14.1815 3.04878 14.2861 3.04878 14.3952V18.5081C3.04878 18.7351 3.27643 18.9194 3.55691 18.9194H28.9634C29.0982 18.9194 29.2275 18.8761 29.3228 18.7989C29.418 18.7218 29.4716 18.6172 29.4716 18.5081V14.3952C29.4716 14.2861 29.418 14.1815 29.3228 14.1043C29.2275 14.0272 29.0982 13.9839 28.9634 13.9839H3.55691Z" fill="white"/>
<path d="M3.55691 23.0321C2.61356 23.0321 1.70885 23.3354 1.0418 23.8754C0.374745 24.4153 0 25.1476 0 25.9112V30.0241C0 31.6133 1.5935 32.9031 3.55691 32.9031H28.9634C29.9068 32.9031 30.8115 32.5998 31.4786 32.0599C32.1456 31.52 32.5204 30.7877 32.5204 30.0241V25.9112C32.5204 25.1476 32.1456 24.4153 31.4786 23.8754C30.8115 23.3354 29.9068 23.0321 28.9634 23.0321H3.55691ZM3.04878 25.9112C3.04878 25.8021 3.10232 25.6975 3.19761 25.6203C3.2929 25.5432 3.42215 25.4999 3.55691 25.4999H28.9634C29.0982 25.4999 29.2275 25.5432 29.3228 25.6203C29.418 25.6975 29.4716 25.8021 29.4716 25.9112V30.0241C29.4716 30.1332 29.418 30.2378 29.3228 30.3149C29.2275 30.392 29.0982 30.4354 28.9634 30.4354H3.55691C3.42215 30.4354 3.2929 30.392 3.19761 30.3149C3.10232 30.2378 3.04878 30.1332 3.04878 30.0241V25.9112Z" fill="white"/>
</svg>
