<svg width="23" height="25" viewBox="0 0 23 25" fill="none" xmlns="http://www.w3.org/2000/svg">
<path d="M20.125 24.5H2.875C2.08138 24.5 1.40381 24.207 0.842285 23.6211C0.280762 23.0352 0 22.3281 0 21.5V3.5C0 2.67188 0.280762 1.96484 0.842285 1.37891C1.40381 0.792969 2.08138 0.5 2.875 0.5H20.125C20.9186 0.5 21.5962 0.792969 22.1577 1.37891C22.7192 1.96484 23 2.67188 23 3.5V21.5C23 22.3281 22.7192 23.0352 22.1577 23.6211C21.5962 24.207 20.9186 24.5 20.125 24.5ZM10.0513 2C9.65446 2 9.31755 2.14453 9.04053 2.43359C8.76351 2.72266 8.625 3.07422 8.625 3.48828C8.625 3.90234 8.76351 4.25781 9.04053 4.55469C9.31755 4.85156 9.6582 5 10.0625 5C10.4668 5 10.8075 4.85156 11.0845 4.55469C11.3615 4.25781 11.5 3.90234 11.5 3.48828C11.5 3.07422 11.3577 2.72266 11.0732 2.43359C10.7887 2.14453 10.4481 2 10.0513 2ZM14.3638 2C13.967 2 13.63 2.14453 13.353 2.43359C13.076 2.72266 12.9375 3.07422 12.9375 3.48828C12.9375 3.90234 13.076 4.25781 13.353 4.55469C13.63 4.85156 13.967 5 14.3638 5C14.7606 5 15.1012 4.85156 15.3857 4.55469C15.6702 4.25781 15.8125 3.90234 15.8125 3.48828C15.8125 3.07422 15.6702 2.72266 15.3857 2.43359C15.1012 2.14453 14.7606 2 14.3638 2ZM18.6875 2C18.2832 2 17.9425 2.14453 17.6655 2.43359C17.3885 2.72266 17.25 3.07422 17.25 3.48828C17.25 3.90234 17.3885 4.25781 17.6655 4.55469C17.9425 4.85156 18.2832 5 18.6875 5C19.0918 5 19.4325 4.85156 19.7095 4.55469C19.9865 4.25781 20.125 3.90234 20.125 3.48828C20.125 3.07422 19.9865 2.72266 19.7095 2.43359C19.4325 2.14453 19.0918 2 18.6875 2ZM20.125 8C20.125 7.57812 19.9827 7.22266 19.6982 6.93359C19.4137 6.64453 19.0768 6.5 18.6875 6.5H4.3125C3.9082 6.5 3.56755 6.64453 3.29053 6.93359C3.01351 7.22266 2.875 7.57812 2.875 8V20C2.875 20.4219 3.01351 20.7773 3.29053 21.0664C3.56755 21.3555 3.9082 21.5 4.3125 21.5H18.6875C19.0768 21.5 19.4137 21.3555 19.6982 21.0664C19.9827 20.7773 20.125 20.4219 20.125 20V8ZM11.4775 18.2422C11.4476 18.4141 11.3802 18.5547 11.2754 18.6641L10.2646 19.7188C10.1149 19.875 9.92773 19.9453 9.70312 19.9297C9.47852 19.9453 9.29134 19.875 9.1416 19.7188L8.13086 18.6641C8.05599 18.5859 7.99609 18.5 7.95117 18.4062L4.51465 14.8438C4.37988 14.7031 4.3125 14.5273 4.3125 14.3164C4.3125 14.1055 4.37988 13.9297 4.51465 13.7891L5.54785 12.7109C5.68262 12.5703 5.85107 12.5 6.05322 12.5C6.25537 12.5 6.42383 12.5703 6.55859 12.7109L9.63574 15.875L16.4189 8.21094C16.5687 8.07031 16.7446 8 16.9468 8C17.1489 8 17.3174 8.07031 17.4521 8.21094L18.4854 9.28906C18.6201 9.42969 18.6875 9.60547 18.6875 9.81641C18.6875 10.0273 18.6201 10.2031 18.4854 10.3438L11.4775 18.2422Z" fill="white"/>
</svg>
