<svg width="17" height="17" viewBox="0 0 17 17" fill="none" xmlns="http://www.w3.org/2000/svg">
<path d="M15.7312 7.43246C15.9054 7.29044 16.0347 7.09231 16.1008 6.86585C16.1669 6.6394 16.1666 6.39598 16.0999 6.16972C16.0333 5.94347 15.9035 5.74572 15.729 5.60421C15.5544 5.4627 15.3437 5.38452 15.1265 5.38064L10.9078 5.20623C10.887 5.20467 10.8672 5.19657 10.8505 5.18292C10.8339 5.16927 10.8212 5.15064 10.814 5.12929L9.35622 0.820464C9.28297 0.601247 9.14994 0.411955 8.97513 0.278217C8.80032 0.144479 8.59217 0.0727539 8.37888 0.0727539C8.16558 0.0727539 7.95743 0.144479 7.78262 0.278217C7.60781 0.411955 7.47478 0.601247 7.40153 0.820464L5.94841 5.14468C5.94122 5.16603 5.92855 5.18465 5.91192 5.19831C5.89528 5.21196 5.8754 5.22005 5.85466 5.22162L1.63591 5.39603C1.41869 5.39991 1.20803 5.47809 1.03347 5.6196C0.8589 5.76111 0.729184 5.95885 0.662504 6.18511C0.595824 6.41137 0.595525 6.65479 0.661648 6.88124C0.727772 7.10769 0.857002 7.30582 1.03122 7.44785L4.34059 10.2948C4.35716 10.309 4.36954 10.3283 4.3762 10.3502C4.38286 10.372 4.38352 10.3956 4.37809 10.4179L3.23903 14.8344C3.18 15.0593 3.18572 15.2986 3.25541 15.5199C3.32509 15.7411 3.45536 15.9334 3.62849 16.0708C3.80162 16.2081 4.00921 16.2837 4.22301 16.2874C4.43681 16.291 4.64645 16.2225 4.82341 16.0911L8.32028 13.5264C8.33751 13.5134 8.35794 13.5064 8.37888 13.5064C8.39981 13.5064 8.42024 13.5134 8.43747 13.5264L11.9343 16.0911C12.1089 16.227 12.3178 16.3 12.532 16.3C12.7462 16.3 12.9551 16.227 13.1297 16.0911C13.3028 15.9551 13.4332 15.7637 13.5029 15.5432C13.5726 15.3228 13.5781 15.0841 13.5187 14.8601L12.3703 10.4281C12.3642 10.4059 12.3645 10.3821 12.3712 10.3601C12.378 10.338 12.3907 10.3188 12.4078 10.305L15.7312 7.43246Z" fill="black"/>
</svg>
